<?xml version="1.0" standalone="no"?>
<!DOCTYPE svg PUBLIC "-//W3C//DTD SVG 1.1//EN" "http://www.w3.org/Graphics/SVG/1.1/DTD/svg11.dtd" >
<!--
2013-9-30: Created.
-->
<svg>
<metadata>
Created by iconfont
</metadata>
<defs>

<font id="iconfont" horiz-adv-x="1024" >
  <font-face
    font-family="iconfont"
    font-weight="500"
    font-stretch="normal"
    units-per-em="1024"
    ascent="896"
    descent="-128"
  />
    <missing-glyph />
    
    <glyph glyph-name="x" unicode="x" horiz-adv-x="1001"
d="M281 543q-27 -1 -53 -1h-83q-18 0 -36.5 -6t-32.5 -18.5t-23 -32t-9 -45.5v-76h912v41q0 16 -0.5 30t-0.5 18q0 13 -5 29t-17 29.5t-31.5 22.5t-49.5 9h-133v-97h-438v97zM955 310v-52q0 -23 0.5 -52t0.5 -58t-10.5 -47.5t-26 -30t-33 -16t-31.5 -4.5q-14 -1 -29.5 -0.5
t-29.5 0.5h-32l-45 128h-439l-44 -128h-29h-34q-20 0 -45 1q-25 0 -41 9.5t-25.5 23t-13.5 29.5t-4 30v167h911zM163 247q-12 0 -21 -8.5t-9 -21.5t9 -21.5t21 -8.5q13 0 22 8.5t9 21.5t-9 21.5t-22 8.5zM316 123q-8 -26 -14 -48q-5 -19 -10.5 -37t-7.5 -25t-3 -15t1 -14.5
t9.5 -10.5t21.5 -4h37h67h81h80h64h36q23 0 34 12t2 38q-5 13 -9.5 30.5t-9.5 34.5q-5 19 -11 39h-368zM336 498v228q0 11 2.5 23t10 21.5t20.5 15.5t34 6h188q31 0 51.5 -14.5t20.5 -52.5v-227h-327z" />
    

    
    <glyph glyph-name="icon" unicode="&#58891;" d="M784.403598 396.57848c-49.41648 117.770264-118.619608 223.824695-192.851263 326.904375-25.628704 35.612079-52.708456 70.195735-80.603783 107.222023-14.8318-19.007913-28.424376-35.999912-41.59228-53.344952-71.895447-94.5494-138.869814-192.320167-193.984063-297.771871-22.796192-43.682895-43.398416-88.249927-57.665351-135.118374-17.240663-64.530712-25.096585-151.85864 16.247033-236.532111 11.539824-22.620184 26.054399-43.895743 43.258223-64.036455 46.406936-54.266951 105.59292-88.461751 174.86768-100.957343 82.126462-14.8318 161.240311-0.849344 231.083006 46.620807 70.335928 47.787376 114.620527 115.151623 131.646296 198.621686C829.609173 260.788817 812.474934 329.637882 784.403598 396.57848zM459.443505 594.7376320000001c-22.796192-80.850399-46.938032-161.310919-68.177775-242.585991-12.353352-47.399543-19.4684-96.249111-14.938224-145.559167 4.6366-50.619888 15.575744-100.141768 31.646767-148.461263 1.381463-4.212952 2.266623-8.601912 4.495384-17.026792-27.433816 23.292496-56.602136 36.990472-76.743872 64.176648-23.219841 31.292704-39.22128 65.417919-47.397496 102.444207-11.256368 50.795896-7.009647 101.770871 16.990976 148.389632 36.177967 70.373791 74.902944 139.401933 112.887047 208.817909 18.830881 34.44244 38.441521 68.496024 57.69912 102.726639 1.061169-0.24764 2.160199-0.460488 3.221368-0.672312C472.576617 642.880095 466.205513 618.774071 459.443505 594.7376320000001z"  horiz-adv-x="1024" />

    
    <glyph glyph-name="mianjihepingjunzhijuxing" unicode="&#58969;" d="M684.387697 613.228775 336.047104 613.228775l0-34.83539 348.340593 0L684.387697 613.228775zM510.215866 296.651606l34.83539 0 0-34.834366 34.834366 0 0-34.834366-34.834366 0 0-34.833343 139.336442 0 0 34.833343-34.834366 0 0 34.834366-34.834366 0 0 34.834366-34.833343 0 0 34.833343-34.834366 0 0 34.83539 34.834366 0 0 36.879955 34.833343 0 0 36.879955 34.834366 0 0 36.882002 34.834366 0 0 36.880979L545.051255 513.84323l0-36.880979 34.834366 0 0-36.882002-34.834366 0 0-36.879955-69.668733 0 0 36.879955L440.547133 440.08025l0 36.882002 34.83539 0 0 36.880979L336.047104 513.84323l0-36.880979 34.833343 0 0-36.882002 34.834366 0 0-36.879955 34.833343 0 0-36.879955 34.83539 0 0-34.83539 34.833343 0L510.216889 296.651606zM858.556459 768.979048 161.874249 768.979048c-19.23611 0-34.833343-15.579837-34.833343-34.834366L127.040906 37.463496c0-19.255553 15.597233-34.834366 34.833343-34.834366l696.681186 0c19.255553 0 34.83539 15.578814 34.83539 34.834366L893.390825 734.144682C893.391848 753.399211 877.812011 768.979048 858.556459 768.979048zM823.724139 72.295815 196.708616 72.295815 196.708616 699.311339 823.724139 699.311339 823.724139 72.295815zM446.68697 296.651606l28.695552 0 0 34.833343L440.547133 331.484949l0-34.833343-30.740118 0 0-50.183959L372.927059 246.467647l0-19.484773-36.879955 0 0-34.833343L446.68697 192.149531 446.68697 296.651606z"  horiz-adv-x="1024" />

    
    <glyph glyph-name="33" unicode="&#58919;" d="M846.239945 881.800603L399.239332 881.800603 175.716512 378.582617l192.982246 0L231.615637-118.49348499999996l558.774303 599.439468L585.46571 480.945983 846.239945 881.800603z"  horiz-adv-x="1024" />

    
    <glyph glyph-name="ny5" unicode="&#58983;" d="M1007.080 292.598l-58.685 34.202c-5.187 3.063-11.063 4.609-16.874 4.609-6.5 0-12.999-1.938-18.624-5.671l-108.963-72.73-224.271 131.009 224.301 130.978 108.932-72.715c5.625-3.749 12.125-5.671 18.655-5.671 5.781 0 11.656 1.532 16.874 4.594l58.653 34.201c16.187 9.468 21.749 30.404 12.312 46.795-6.249 11-17.593 17.14-29.249 17.14-5.812 0-11.593-1.547-16.937-4.609l-40.529-23.655-63.184 42.201 69.777 40.795c16.218 9.452 21.811 30.404 12.5 46.732-6.281 11-17.624 17.14-29.28 17.14-5.718 0-11.593-1.547-16.937-4.671l-69.903-40.733-4.563 76.466 40.561 23.655c16.187 9.531 21.687 30.404 12.375 46.748-6.249 11-17.593 17.124-29.248 17.124-5.812 0-11.624-1.532-16.937-4.594l-58.686-34.263c-11.062-6.468-17.5-18.734-16.812-31.67l7.813-131.728-223.987-130.826v260.8l117.682 58.794c11.499 5.812 18.843 17.609 18.843 30.529l0 68.264c0 18.874-15.281 34.139-34.124 34.139-18.781 0-34.061-15.265-34.061-34.139v-47.185l-68.34-34.14-0 81.324c0 18.874-15.248 34.139-34.123 34.139-18.811 0-34.061-15.265-34.061-34.139v-81.324l-68.34 34.14v47.185c0 18.874-15.218 34.139-34.061 34.139-18.968 0-34.217-15.265-34.217-34.139v-68.263c0-12.937 7.313-24.718 18.874-30.529l117.713-58.794v-260.847l-224.083 130.852 7.812 131.728c0.75 12.937-5.718 25.202-16.874 31.733l-58.56 34.201c-5.344 3.125-11.217 4.594-16.937 4.594-11.75 0-23.061-6.124-29.374-17.062-9.25-16.406-3.719-37.264 12.5-46.795l40.498-23.655-4.562-76.466-69.871 40.795c-5.344 3.125-11.124 4.594-16.937 4.594-11.687 0-22.999-6.14-29.28-17.139-9.343-16.328-3.781-37.265 12.406-46.732l69.872-40.795-63.123-42.185-40.623 23.655c-5.312 3.063-11.124 4.594-16.937 4.594-11.655 0-22.999-6.124-29.311-17.124-9.375-16.406-3.813-37.342 12.374-46.795l58.685-34.201c5.187-3.063 11.062-4.609 16.874-4.609 6.438 0 13 1.938 18.655 5.671l108.839 72.73 224.364-130.993-224.364-131.009-108.839 72.73c-5.656 3.734-12.218 5.672-18.655 5.672-5.812 0-11.686-1.547-16.874-4.609l-58.685-34.203c-16.187-9.468-21.748-30.388-12.374-46.731 6.249-11 17.624-17.14 29.311-17.14 5.75 0 11.625 1.547 16.937 4.61l40.529 23.655 63.216-42.264-69.935-40.795c-16.187-9.405-21.748-30.327-12.343-46.732 6.281-10.937 17.593-17.077 29.28-17.077 5.718 0 11.561 1.485 16.937 4.61l69.809 40.733 4.625-76.403-40.561-23.655c-16.187-9.53-21.749-30.404-12.5-46.732 6.343-11.077 17.749-17.203 29.436-17.203 5.781 0 11.562 1.469 16.906 4.594l58.59 34.263c11.124 6.468 17.624 18.734 16.874 31.67l-7.874 131.728 224.113 130.884v-260.878l-117.713-58.794c-11.531-5.766-18.843-17.578-18.843-30.5v-68.262c0-18.874 15.249-34.139 34.186-34.139 18.874 0 34.061 15.265 34.061 34.139v47.185l68.34 34.139v-81.324c0-18.874 15.281-34.139 34.061-34.139 18.842 0 34.154 15.265 34.154 34.139v81.324l68.31-34.139v-47.185c0-18.874 15.249-34.139 34.061-34.139 18.874 0 34.123 15.265 34.123 34.139v68.262c0 12.921-7.313 24.733-18.873 30.53l-117.62 58.794v260.816l224.053-130.822-7.874-131.729c-0.749-12.937 5.75-25.202 16.812-31.733l58.653-34.202c5.345-3.14 11.156-4.609 16.938-4.609 11.655 0 22.999 6.14 29.342 17.139 9.312 16.406 3.813 37.264-12.406 46.795l-40.529 23.655 4.531 76.402 69.871-40.794c5.344-3.063 11.124-4.531 16.874-4.531 11.655 0 23.031 6.14 29.342 17.062 9.375 16.405 3.781 37.341-12.436 46.732l-69.841 40.794 63.184 42.264 40.529-23.655c5.344-3.125 11.219-4.593 16.937-4.593 11.656 0 23.061 6.124 29.249 17.123 9.404 16.345 3.873 37.281-12.313 46.734z"  horiz-adv-x="1024" />

    
    <glyph glyph-name="fangzi-copy" unicode="&#58880;" d="M969.5 323.443l-468.75 363.867-468.75-363.867v148.359l468.75 363.867 468.75-363.867zM852.313 336.65599999999995v-351.563h-234.375v234.375h-234.375v-234.375h-234.375v351.563l351.563 263.672z"  horiz-adv-x="1000" />

    
    <glyph glyph-name="wendu" unicode="&#59154;" d="M633.472 239.20000000000005L633.472 777.5840000000001C633.472 842.896 578.976 896 512 896c-66.976 0-121.44-53.104-121.44-118.416L390.56 239.20000000000005C336.16 201.03999999999996 304 140.44799999999998 304 74.79999999999995 304-37.00800000000004 397.344-128 512-128c114.656 0 208 91.008 208 202.8C720 140.44799999999998 687.872 201.03999999999996 633.472 239.20000000000005zM512-83.47199999999998c-89.504 0-162.336 70.976-162.336 158.272 0 54.512 28.384 104.496 75.936 133.776l10.64 6.56L436.24 777.5840000000001c0 40.736 34 73.904 75.776 73.904 41.808 0 75.808-33.168 75.808-73.904l0-562.432 10.624-6.56c47.504-29.28 75.872-79.328 75.872-133.776C674.32-12.495999999999981 601.536-83.47199999999998 512-83.47199999999998zM534.848 149.55200000000002L534.848 594.88l-45.68 0 0-445.328c-33.2-9.664-57.536-39.296-57.536-74.752 0-43.28 35.968-78.384 80.384-78.384 44.4 0 80.336 35.104 80.336 78.384C592.336 110.25599999999997 568.032 139.87199999999996 534.848 149.55200000000002z"  horiz-adv-x="1024" />

    
    <glyph glyph-name="gonglv" unicode="&#59056;" d="M512 883.2C236.8 883.2 12.8 659.2 12.8 384c0-275.2 224-499.2 499.2-499.2 275.2 0 499.2 224 499.2 499.2C1011.2 659.2 787.2 883.2 512 883.2zM512-70.4c-249.6 0-454.4 204.8-454.4 454.4 0 249.6 204.8 454.4 454.4 454.4s454.4-204.8 454.4-454.4C966.4 134.4 761.6-70.4 512-70.4zM832 352l-185.6 0L620.8 435.2C620.8 441.6 614.4 448 608 448c-6.4 0-12.8 0-12.8-6.4L505.6 307.2 416 505.6c0 6.4-6.4 12.8-12.8 12.8C396.8 518.4 390.4 512 384 512L300.8 403.2 185.6 403.2C179.2 403.2 172.8 396.8 172.8 384c0-6.4 6.4-19.2 12.8-19.2l128 0c12.8 0 19.2 6.4 19.2 6.4l64 83.2 89.6-204.8c0-6.4 6.4-12.8 12.8-12.8 0 0 0 0 0 0 6.4 0 19.2 0 19.2 6.4L601.6 384l12.8-57.6C620.8 320 627.2 320 633.6 320l204.8 0c6.4 0 12.8 6.4 12.8 19.2C851.2 345.6 844.8 352 832 352zM492.8 416l76.8 96L531.2 512l6.4 76.8L467.2 492.8l38.4 0L492.8 416z"  horiz-adv-x="1024" />

    
    <glyph glyph-name="shujuguanlisvg55" unicode="&#59135;" d="M1024.508 1046.803h-1024.999c-83.012 0-150.313-67.122-150.313-149.908v-1025.807c0-82.786 67.3-149.908 150.313-149.908h1024.999c83.012 0 150.313 67.122 150.313 149.908v1025.809c-0.017 82.786-67.3 149.908-150.313 149.908zM1064.589-128.895c0-22.039-17.979-39.969-40.082-39.969h-1024.999c-22.103 0-40.083 17.93-40.083 39.969v1025.809c0 22.039 17.979 39.969 40.083 39.969h1025.001c22.103 0 40.082-17.93 40.082-26.164v-1039.613zM494.519 879.115c11.683 0 23.281 0 34.964 0 1.741-0.662 3.479-1.573 5.302-1.823 63.961-9.611 116.322-58.41 126.595-122.122 4.474-27.507 2.652-56.007 3.728-84.093 0.083-3.314 0.25-6.546 0.497-11.267 42.172 31.649 82.851 61.971 123.282 92.626 11.103 8.368 23.033 12.179 36.868 12.179 61.145-0.166 122.204 0 183.348 0 0-25.269 0-50.455 0-75.726-3.81-0.25-7.705-0.83-11.517-0.83-52.694-0.083-105.469 0.083-158.161-0.25-4.805 0-10.439-1.409-14.167-4.226-51.698-38.359-103.149-76.969-154.433-115.825-2.899-2.071-5.468-6.627-5.468-10.108-0.25-88.898-0.25-177.881 0-266.861 0-3.314 1.987-7.539 4.39-9.86 37.2-36.041 59.901-79.455 68.683-130.573 17.979-104.475-44.657-213.92-144.326-249.628-58.823-19.636-134.633-10.108-150.54-5.137-166.778 52.195-215.908 264.541-89.312 385.089 1.573 1.491 4.143 3.314 4.143 5.054 0.331 15.493 0.166 30.987 0.166 48.135-42.172-31.649-82.602-61.641-122.784-92.212-11.599-8.865-24.11-12.841-38.525-12.841-60.813 0.166-121.541-0.083-182.354-0.166 0 25.85 0 51.781 0 77.631 3.563-0.166 7.043-0.497 10.605-0.497 52.775 0 105.469-0.25 158.244 0.25 5.883 0.083 12.759 2.319 17.481 5.801 49.628 36.703 98.923 74.068 148.55 110.853 6.627 4.889 9.362 9.86 9.28 18.227-0.331 93.869-0.83 187.655 0 281.526 0.58 66.281 30.987 114.996 91.385 143.33 13.753 6.38 29.328 9.030 44.077 13.34zM435.694 489.055c2.154 0.662 2.899 0.662 3.314 0.994 48.385 36.206 96.769 72.412 145.071 108.865 2.154 1.657 4.060 5.22 4.060 7.954 0.083 42.337 1.076 84.756-0.746 127.010-2.237 51.451-62.718 84.756-108.451 60.978-29.993-15.577-43.414-40.762-43.33-74.235 0.25-74.068 0.083-148.137 0.083-222.205 0-2.817 0-5.716 0-9.362z"  horiz-adv-x="1024" />

    
    <glyph glyph-name="gongshuaiyinshu" unicode="&#58936;" d="M719.785129-128h-1.341631c-14.757943 0.670816-27.168031 10.397642-31.192925 24.484769L455.148379 739.699967 318.637406 275.16017c-4.360301-14.422535-17.441205-24.149361-32.199149-24.149361H33.54078c-18.447429 0-33.54078 15.093351-33.54078 33.54078s15.093351 33.54078 33.54078 33.540779h227.741893L423.955454 871.850639c4.360301 14.422535 17.441205 24.149361 32.199148 24.149361h0.335408c15.093351 0 28.174255-10.062234 32.199148-24.484769l235.456273-854.619063 205.940386 575.224369c5.031117 14.422535 19.118244 23.478546 34.211595 22.136915 15.093351-1.341631 27.503439-12.410088 30.186702-27.50344l58.025549-325.680969h260.611857c18.447429 0 33.54078-15.093351 33.540779-33.54078s-15.093351-33.54078-33.540779-33.540779h-288.450704c-16.099574 0-30.186702 11.739273-32.869964 27.503439l-40.919751 229.418932-199.232231-556.77694c-5.366525-13.416312-17.776613-22.136915-31.863741-22.136915z"  horiz-adv-x="1346" />

    
    <glyph glyph-name="leijijingzhi" unicode="&#58883;" d="M522.832 418.133c-12.584 0-22.756-10.194-22.756-22.755v-364.09c0-12.583 10.172-22.755 22.756-22.755s22.755 10.172 22.755 22.756V395.378c0.023 12.56-10.217 22.755-22.755 22.755zM363.543 327.111c-12.584 0-22.756-10.172-22.756-22.755v-273.067c0-12.584 10.172-22.756 22.756-22.756s22.755 10.172 22.755 22.756V304.356c0 12.583-10.194 22.755-22.755 22.755zM204.254 258.844c-12.584 0-22.756-10.194-22.756-22.755v-204.8c0-12.584 10.172-22.756 22.756-22.756s22.755 10.172 22.755 22.756v204.8c0 12.561-10.194 22.755-22.755 22.755zM841.432 600.178c-12.606 0-22.755-10.195-22.755-22.756V31.29c0-12.584 10.149-22.756 22.755-22.756 12.584 0 22.756 10.172 22.756 22.756V577.422c0 12.561-10.24 22.756-22.756 22.756zM682.143 509.156c-12.606 0-22.755-10.172-22.755-22.756v-455.111c0-12.584 10.149-22.756 22.755-22.756 12.584 0 22.756 10.172 22.756 22.756V486.4c0 12.584-10.24 22.756-22.756 22.756zM875.566 759.467h-204.8c-2.572 0-5.12-0.342-7.51-0.888v-0.114c-1.07 0.16-2.048 0.638-3.186 0.638-12.743 0-23.051-10.104-23.051-22.597 0-12.492 10.308-22.596 23.051-22.596 1.138 0 2.117 0.478 3.186 0.637v-0.933c2.39 0.182 4.87 0.342 7.51 0.342H816.4L131.413 323.652a163.937 163.937 0 0 0-6.553-3.55l0.114-0.432c-6.531-4.119-11.105-10.99-11.105-19.297 0-12.788 10.376-23.188 23.165-23.188 0.205 0 0.364 0.091 0.546 0.091 6.986-0.295 21.754 6.372 27.967 9.967l718.802 409.6c0.524 0.342 0.888 0.865 1.411 1.206 3.004 0.956 7.1 3.277 11.446 6.759 5.325 4.278 9.102 8.783 9.967 11.491 1.48 1.935 2.458 4.643 2.458 9.012 0.068 18.864-15.224 34.156-34.065 34.156z"  horiz-adv-x="1024" />

    
    <glyph glyph-name="liuliang" unicode="&#59077;" d="M192.651 220.306c0-102.959 83.46-186.414 186.414-186.414 102.964 0 186.414 83.455 186.414 186.414 0 102.953-186.414 384.473-186.414 384.473s-186.414-281.519-186.414-384.473zM379.065 80.496c-77.093 0-139.81 62.722-139.81 139.81-0.005 51.095 72.65 188.494 139.81 297.726 67.155-109.232 139.81-246.637 139.81-297.726 0-77.088-62.717-139.81-139.81-139.81zM756.26 516.517c0 67.564-122.334 250.487-122.334 250.487s-122.334-182.924-122.334-250.487c0-67.569 54.77-122.334 122.334-122.334 67.569 0 122.334 54.765 122.334 122.334zM633.926 440.786c-41.757 0-75.73 33.974-75.73 75.73 0 24.409 34.673 94.564 75.73 163.228 41.063-68.658 75.73-138.814 75.73-163.228 0-41.757-33.974-75.73-75.73-75.73zM758.736 395.651s-81.556-118.069-81.556-163.106 36.519-81.556 81.556-81.556 81.556 36.519 81.556 81.556-81.556 163.106-81.556 163.106zM758.736 197.593c-19.221 0.027-34.811 15.543-34.953 34.735 0.833 11.605 15.006 41.724 34.964 76.227 19.947-34.475 34.101-64.586 34.941-76.214-0.142-19.205-15.731-34.723-34.95-34.749z"  horiz-adv-x="1024" />

    
    <glyph glyph-name="zhaoming" unicode="&#58890;" d="M627.2 896c-282.76992 0-512-229.23008-512-512s229.23008-512 512-512 512 229.23008 512 512-229.23008 512-512 512zM275.2 409.1136c0 6.97216 4.52736 12.61824 10.07744 12.6016l80.63744 0.01664c5.55008-0.01664 10.07744-5.66272 10.07744-12.61824s-4.52736-12.61696-10.07744-12.6016l-80.63744-0.01664c-5.56416 0-10.07744 5.66272-10.07744 12.61824z m163.16544-194.12352l-56.81792-56.82176c-3.92064-3.91936-11.08992-3.12832-16.01664 1.79584-4.928 4.93056-5.71648 12.09856-1.79712 16.01792l56.8192 56.8192c3.91936 3.91936 11.07968 3.12192 16.0064-1.8048s5.72544-12.0896 1.80608-16.0064z m201.43872-147.59424c0-5.54624-5.62688-10.05568-12.59648-10.05568-6.96576 0-12.5952 4.50944-12.5952 10.05568v80.35072c0 5.54496 5.62816 10.04416 12.5952 10.04416 6.9696 0 12.59648-4.4992 12.59648-10.04416v-80.35072z m-12.60288 140.68608c-110.97472 0-200.93312 91.63264-200.93312 204.6784 0 79.49952 44.50048 148.41728 109.51552 182.31296v22.464c0 51.43296 40.92416 93.12 91.41888 93.12 50.49344 0 91.41632-41.68832 91.41632-93.12v-22.46272c65.01504-33.89568 109.51808-102.81472 109.51808-182.31424-0.00256-113.04576-89.96224-204.6784-200.93568-204.6784z m247.27936-46.35776c-4.68352-4.68352-11.49952-5.43488-15.2256-1.70752l-54.00448 54.0032c-3.7248 3.72608-2.96576 10.53184 1.71648 15.21664 4.68352 4.68224 11.48928 5.44256 15.21664 1.7152l54.00448-54.00448c3.72608-3.72864 2.976-10.53952-1.70752-15.22304z m94.6432 234.78784h-80.64c-5.57184 0-10.07744 5.64608-10.07744 12.6016 0 6.97216 4.50688 12.61824 10.07744 12.61824h80.64c5.5616 0 10.07616-5.64608 10.07616-12.61824 0-6.95552-4.51456-12.6016-10.07616-12.6016z"  horiz-adv-x="1638" />

    
    <glyph glyph-name="Eyou" unicode="&#58881;" d="M716.059-61.84h-33.601v231.114c-20.488-25.135-43.16-49.447-67.75-72.666-6.010 10.38-12.839 21.31-20.488 32.509 54.637 48.080 97.254 101.352 127.849 159.813h-116.103v33.054h131.948c8.195 18.575 15.024 37.699 20.762 57.096l35.241-8.467c-5.738-16.39-11.747-32.781-18.575-48.625h239.581v-33.054h-254.879c-8.741-17.483-18.305-34.695-28.957-51.357h232.479v-238.487c0-36.879-17.21-55.457-51.357-55.457-15.024-0.274-37.699-0.546-68.295-0.546-1.366 10.108-3.55 22.403-6.283 36.608 25.954-2.185 46.987-3.004 62.831-3.004 19.396 0 29.232 10.108 29.232 30.324v31.689h-213.901v-100.53zM929.686 206.427h-213.901v-52.997h213.901v52.997zM716.059 69.561h213.901v53.545h-213.901v-53.545zM512.809-50.366h-502.931v843.315h478.342v-93.701h-364.697v-261.435h335.197v-93.701h-335.197v-300.774h389.559v-93.701z"  horiz-adv-x="1024" />

    
    <glyph glyph-name="pzong" unicode="&#58882;" d="M603.402 107.612l34.689-11.859c-12.747-40.618-28.757-82.423-48.325-125.409-9.784 4.446-21.348 9.784-33.798 15.714 18.086 38.246 33.798 78.567 47.437 121.556zM617.037 329.080h202.791c19.271 29.646 36.763 58.406 51.885 85.977l35.875-19.568c-15.417-22.236-31.13-44.472-47.437-66.41h98.43v-199.232h-37.059v21.348h-267.422v-21.348h-37.059v199.232zM921.521 293.801h-267.422v-107.326h267.422v107.326zM668.626 395.787l28.463 18.973c18.677-20.458 35.281-41.802 50.104-63.446l-31.427-21.643c-13.638 20.458-29.351 42.394-47.141 66.114zM676.040 104.349h36.171v-85.384c0-25.496 10.97-38.246 32.614-38.246h93.391c18.382 0 29.646 9.784 34.391 29.351 2.668 10.079 5.633 28.463 8.302 54.848 8.895-4.15 20.752-9.191 35.875-14.527-4.15-24.606-8.595-45.065-13.34-61.074-9.488-28.463-30.536-42.394-63.149-42.394h-102.581c-40.913 0-61.372 21.939-61.372 65.522v91.91zM747.786 120.952l28.463 19.568c21.939-24.312 42.394-50.402 60.779-78.269l-31.13-22.829c-18.677 29.054-37.949 56.33-58.11 81.532zM912.627 90.709l26.387 21.348c28.463-33.207 55.146-66.707 80.346-100.209l-31.13-25.796c-21.939 32.614-47.141 67.3-75.602 104.657zM544.997 549.659c0-81.532-23.719-145.866-71.154-193.6-47.437-47.437-113.847-71.154-198.641-71.154h-147.645v-341.247h-117.109v870.756h264.752c84.793 0 150.907-23.719 198.641-71.154 47.437-47.734 71.154-112.068 71.154-193.6zM427.889 549.659c0 64.336-15.417 108.511-45.954 132.527-30.536 23.719-76.49 35.577-137.564 35.577h-117.109v-335.908h117.109c61.074 0 107.028 11.859 137.564 35.577 30.834 23.422 45.954 67.596 45.954 132.228z"  horiz-adv-x="1024" />

    
    <glyph glyph-name="Qzong" unicode="&#58884;" d="M611.697 131.523l34.869-11.783c-12.745-40.639-28.857-82.482-48.334-125.287-9.86 4.568-21.161 9.86-33.907 15.63 18.035 38.235 33.666 78.635 47.374 121.439zM625.163 352.756h202.718c19.238 29.577 36.552 58.194 51.943 85.848l35.589-19.479c-15.39-22.363-31.261-44.487-47.374-66.371h98.353v-199.112h-37.034v21.401h-267.165v-21.401h-37.034v199.112zM929.362 317.648h-267.165v-107.251h267.165v107.251zM676.623 419.609l28.374 18.998c18.516-20.44 35.35-41.601 50.018-63.484l-31.503-21.401c-13.467 20.2-29.098 42.083-46.892 65.889zM684.079 128.156h36.072v-85.368c0-25.49 10.82-37.994 32.463-37.994h93.303c18.277 0 29.577 9.86 34.387 29.338 2.886 10.1 5.53 28.374 8.417 54.588 8.898-4.329 20.922-9.138 35.589-14.669-4.089-24.768-8.417-44.969-13.467-61.079-9.619-28.374-30.541-42.565-63.004-42.565h-102.442c-40.881 0-61.321 21.883-61.321 65.409v92.341zM755.98 144.748l28.374 19.479c21.883-24.289 42.083-50.499 60.84-78.153l-31.021-22.845c-18.756 29.338-38.235 56.511-58.194 81.52zM920.463 114.449l26.452 21.401c28.374-33.185 55.068-66.612 80.317-100.037l-31.021-25.971c-22.124 32.946-47.374 67.573-75.75 104.605zM506.129 384.739c0-72.623-5.29-133.944-15.871-183.722-10.581-50.018-28.136-90.177-52.183-120.237l36.312-68.053-72.623-77.192-40.881 77.192c-12.024-9.138-27.174-15.871-45.448-20.44s-37.994-6.733-58.916-6.733c-78.635 0-140.677 31.021-186.126 93.063-45.448 61.803-68.053 163.763-68.053 306.121 0 142.12 22.604 243.599 68.053 304.198 45.448 60.6 107.492 90.898 186.126 90.898s139.956-30.299 183.722-90.898c43.767-60.6 65.889-162.078 65.889-304.198zM397.195 384.739c0 127.211-13.707 210.414-40.881 249.61s-60.6 58.916-99.796 58.916c-39.437 0-73.344-19.719-102.202-58.916-28.857-39.437-43.045-122.64-43.045-249.61 0-127.211 14.428-211.135 43.045-252.016 28.616-40.881 62.764-61.321 102.202-61.321 15.149 0 28.616 2.164 40.881 6.733 12.024 4.568 21.161 9.86 27.174 15.871l-72.623 140.677 63.484 77.192 63.484-122.64c6.011 30.299 10.581 57.473 13.707 81.762 2.886 24.529 4.568 62.282 4.568 113.743z"  horiz-adv-x="1024" />

    
    <glyph glyph-name="pingjunzhi" unicode="&#58885;" d="M377.94126 394.580986H267.218506v36.907585H377.94126v-36.907585z m184.700629 36.907585h-110.721731v-36.907585h110.721731v36.907585z m-369.402281 0H82.516854v-36.907585h110.722754v36.907585z m554.103933 0H636.620787v-36.907585h110.722754v36.907585z m184.701652 0H821.321416v-36.907585h110.723777v36.907585zM84.898087 648.955464l32.870642-47.864124s83.042321 69.778226 174.157505 51.901067c87.657432-24.219611 153.974837-147.630339 162.336272-184.537923 0 0.576121 61.705364 0 61.993936 0-2.883677 39.791262-76.699869 202.416106-204.722638 236.440014-115.273397 34.582633-226.635717-55.939033-226.635717-55.939034zM949.921329 177.021995l-32.871665 47.864124s-83.041298-69.777203-174.156482-51.901067c-87.657432 24.221658-153.974837 147.631362-162.337295 184.537923 0-0.576121-61.705364 0-61.992913 0 2.882654-39.792285 76.698846-202.415083 204.722638-236.440013 115.273397-34.58161 226.635717 55.939033 226.635717 55.939033z"  horiz-adv-x="1024" />

    
    <glyph glyph-name="baifenbi" unicode="&#59058;" d="M623.729778 826.311111c57.002667-12.629333 114.005333-37.944889 158.321778-75.946667 44.373333-38.001778 82.318222-82.318222 107.633777-139.377777l-278.641777-75.946667 12.686222 291.271111zM566.727111 896L554.097778 452.721778l424.277333 120.32c-25.315556 88.632889-82.318222 170.951111-152.007111 227.953778C750.364444 857.998222 661.731556 896 566.727111 896zM471.722667 357.717333l430.648889 107.633778c6.314667-31.630222 12.686222-69.632 12.686222-107.633778 0-240.64-202.695111-443.335111-443.335111-443.335111S28.444444 117.077333 28.444444 357.717333 224.711111 800.995556 471.722667 800.995556v-443.278223z"  horiz-adv-x="1024" />

    
    <glyph glyph-name="xiangduishidu" unicode="&#58897;" d="M411.20000000000005-66c-180 0-327.6 147.6-327.6 331.2 0 12.6 3.5999999999999996 293.40000000000003 309.59999999999997 554.4l18 14.399999999999999 18-14.399999999999999c3.5999999999999996-1.7999999999999998 79.19999999999999-66.6 154.79999999999998-165.6l-43.199999999999996-32.4c-52.2 66.6-102.6 117.00000000000001-129.6 140.39999999999998C143 524.4 137.60000000000002 267 137.60000000000002 265.19999999999993 137.60000000000002 112.19999999999993 260-12 411.20000000000005-12c45 0 90 10.799999999999999 129.6 34.199999999999996l25.2-46.8c-45-26.999999999999996-99-41.4-154.79999999999998-41.4zM706.3999999999999 25.799999999999955c-133.2 0-243.00000000000006 109.80000000000001-243.00000000000006 244.8 0 9 1.7999999999999998 214.2 225 405l18 14.399999999999999 18-14.399999999999999c9-7.199999999999999 225-190.79999999999998 225-405 0-135-109.80000000000001-244.8-243.00000000000006-244.8z m0 592.2c-187.2-169.2-189-345.59999999999997-189-347.4 0-106.2 84.6-190.79999999999998 189-190.79999999999998s189 86.39999999999999 189 190.79999999999998c0 156.6-140.39999999999998 300.6-189 347.4zM323 87c-63 37.8-100.8 86.39999999999999-111.6 145.8C188.00000000000006 346.19999999999993 267.2 456 270.79999999999995 459.6l43.199999999999996-32.4-21.599999999999998 16.2 21.599999999999998-16.2c0-1.7999999999999998-68.39999999999999-95.39999999999999-50.4-183.59999999999997 9-45 37.8-80.99999999999999 86.39999999999999-109.80000000000001l-26.999999999999996-46.8zM663.2 144.60000000000002c-46.8 26.999999999999996-75.6 64.8-84.6 109.80000000000001-16.2 84.6 41.4 165.6 45 169.2l43.199999999999996-32.4s-46.8-64.8-34.199999999999996-126c5.3999999999999995-30.6 25.2-53.99999999999999 59.4-73.8l-28.799999999999997-46.8z"  horiz-adv-x="1024" />

    
    <glyph glyph-name="fuhe" unicode="&#58886;" d="M180 627c172 0 234-138 260-188s138-282 336-32c125.306 158.214 205.754 217.103 247.937 239.017v33.918c0 119.293-96.706 216-216 216H216.064c-119.293 0-216-96.707-216-216v-112.924C43.405 598.591 103.607 627 180 627zM840 225c-100-164-362-242-512 90C232.006 527.468 63.396 406.013 0.064 334.874v-246.81c0-119.295 96.707-216 216-216h591.872c119.294 0 216 96.705 216 216V412.5C957.124 357.141 875.275 282.852 840 225z"  horiz-adv-x="1024" />

    
    <glyph glyph-name="yali" unicode="&#59055;" d="M511.998707 879.296646C238.200242 879.296646 16.240485 657.336889 16.240485 383.533253c0-273.797172 221.959758-495.756929 495.758222-495.75693 273.802343 0 495.762101 221.964929 495.762101 495.75693 0 273.803636-221.959758 495.763394-495.762101 495.763393z m37.626828-551.239111c-1.033051-37.995313-31.91596-68.551111-70.112969-68.551111-38.795636 0-70.30303 31.50998-70.303031 70.332768 0 32.166788 21.668202 58.953697 51.103031 67.378424l155.927272 111.273374-66.614303-180.433455z m240.311596-259.563313c-8.883717-8.327758-20.565333-12.944808-32.848161-12.944808h-0.015515c-13.328808 0-26.176646 5.590626-35.247839 15.33802-8.772525 9.399596-13.358545 21.682424-12.903434 34.570344 0.45899 12.873697 5.903515 24.798384 15.327677 33.570909 62.990222 58.748121 99.121131 141.873131 99.121131 228.055919 0 171.848404-139.676444 311.661899-311.364525 311.661899-171.716525 0-311.418828-139.813495-311.418829-311.661899 0-86.075475 36.130909-169.182384 99.131475-228.005495 19.383596-18.151434 20.454141-48.712404 2.419071-68.141252-9.111273-9.768081-21.944889-15.348364-35.258182-15.348364a48.201697 48.201697 0 0 0-32.848162 12.88404C151.513212 145.525657 104.23596 254.347636 104.23596 367.100121c0 224.999434 182.93398 408.051071 407.792484 408.051071 224.828768 0 407.736889-183.050343 407.736889-408.051071 0.005172-112.823596-47.312162-221.662384-129.828202-298.605899zM512.028444 727.00897c-198.313374 0-359.651556-161.454545-359.651555-359.910142 0-99.465051 41.712485-195.459879 114.439757-263.373575-0.025859 0.025859 0 0.010343 0.064647 0.010343a0.230141 0.230141 0 0 1-0.009051 0.140929c-72.722101 67.904646-114.424242 163.838707-114.424242 263.206788 0 198.393535 161.298101 359.802828 359.559758 359.802828 198.233212 0 359.510626-161.409293 359.510626-359.802828 0-99.489616-41.712485-195.449535-114.444929-263.272727l0.020686-0.121535h0.03491c72.75701 67.88396 114.495354 163.88396 114.490181 263.404606 0 198.460768-161.313616 359.915313-359.590788 359.915313z m0 0"  horiz-adv-x="1024" />

    
    <glyph glyph-name="icon_zhanbishuai" unicode="&#59002;" d="M311.3 479.7c95.7 0 173.9 78.3 173.9 173.9 0 95.7-78.3 173.9-173.9 173.9-95.7 0-173.9-78.3-173.9-173.9 0-95.6 78.3-173.9 173.9-173.9z m0 295.7c67.1 0 121.8-54.6 121.8-121.8s-54.6-121.8-121.8-121.8-121.8 54.6-121.8 121.8 54.7 121.8 121.8 121.8zM715 292.6c-95.7 0-173.9-78.3-173.9-173.9 0-95.7 78.3-173.9 173.9-173.9 95.7 0 173.9 78.3 173.9 173.9 0.1 95.7-78.2 173.9-173.9 173.9z m0-295.7c-67.1 0-121.8 54.6-121.8 121.8 0 67.1 54.6 121.8 121.8 121.8s121.8-54.6 121.8-121.8c0-67.1-54.6-121.8-121.8-121.8zM771.5 814.4c-12 7.9-28.3 4.5-36.1-7.5L191.5-22c-7.9-12-4.5-28.3 7.5-36.1 12-7.9 28.3-4.5 36.1 7.5L779 778.2c7.9 12 4.5 28.3-7.5 36.2z"  horiz-adv-x="1024" />

    
    <glyph glyph-name="dainliu" unicode="&#58887;" d="M66.600107 558.328263a49.066822 49.066822 0 0 0-40.832796 76.206908A584.324519 584.324519 0 0 0 997.19839 638.399183a49.066822 49.066822 0 1 0-81.266924-54.939507 486.190875 486.190875 0 0 1-808.360562-3.26601 49.066822 49.066822 0 0 0-40.970797-21.865403zM216.86725-127.97857899999997a49.066822 49.066822 0 0 0-45.172143 68.202883l283.468232 670.06879 1.426004 2.514675a61.824196 61.824196 0 0 0 53.528837 31.157432 61.824196 61.824196 0 0 0 53.528836-31.019432l1.426005-2.499341 1.13467-2.652675 284.648902-667.462116a49.066822 49.066822 0 1 0-90.267619-38.502122L510.409514 488.852709 262.146727-98.01715100000001a49.066822 49.066822 0 0 0-45.279477-29.961428zM286.557471 164.52101500000003h434.149376M286.557471 213.58783700000004h434.134043v-98.133645H286.557471z"  horiz-adv-x="1024" />

    
    <glyph glyph-name="voltage" unicode="&#58888;" d="M65.959935 557.835075a49.138487 49.138487 0 0 0-40.892435 76.318213A585.177956 585.177956 0 0 0 997.917406 638.022944a49.138487 49.138487 0 1 0-81.385619-55.01975 486.900982 486.900982 0 0 1-809.541216-3.27078 49.138487 49.138487 0 0 0-41.030636-21.897339zM510.525039-128a59.211877 59.211877 0 0 0-51.257584 29.836275l-1.428087 2.518347-223.457269 528.238735a49.138487 49.138487 0 0 0 90.50695 38.281952L510.678597 31.469745999999986l187.432616 439.543765a49.138487 49.138487 0 0 0 90.39946-38.558356l-225.284607-528.238735-1.428087-2.502991a59.211877 59.211877 0 0 0-51.27294-29.713429z"  horiz-adv-x="1024" />

    


  </font>
</defs>
</svg>
